<svg xmlns="http://www.w3.org/2000/svg" viewBox="0 0 427.27 233.35"><defs><style>.cls-1{fill:#fff;}.cls-2{fill:#8bcfb7;}.cls-3{fill:#6fccdd;}.cls-4{fill:#00bbb4;}.cls-5{fill:#0099cd;}</style></defs><title>Asset 1</title><g id="Layer_2" data-name="Layer 2"><g id="Layer_1-2" data-name="Layer 1"><path class="cls-1" d="M82.44,83.23h18.43v5.51H88.42V93.8h11.76v5.52H88.42v5.51h13.14v5.52H82.44Z"/><path class="cls-1" d="M102.63,91.73h6.21l4.71,12.64h.08L118,91.73h5.79l-7.36,18.62h-6.09Z"/><path class="cls-1" d="M137.05,108H137a5.46,5.46,0,0,1-2.54,2.15,8.89,8.89,0,0,1-3.36.65,8.75,8.75,0,0,1-2.51-.36,6.38,6.38,0,0,1-2.12-1.1,5.14,5.14,0,0,1-1.46-1.8,5.44,5.44,0,0,1-.54-2.49,5.67,5.67,0,0,1,.6-2.72,5.28,5.28,0,0,1,1.61-1.84A8.08,8.08,0,0,1,129,99.37a17.69,17.69,0,0,1,2.7-.59,26.23,26.23,0,0,1,2.79-.23c.94,0,1.8,0,2.59,0A3,3,0,0,0,136,96.08a4,4,0,0,0-2.59-.9,5.66,5.66,0,0,0-2.58.59,7.09,7.09,0,0,0-2.09,1.63l-3.07-3.14A10.6,10.6,0,0,1,129.39,92a13.36,13.36,0,0,1,4.44-.75,11.67,11.67,0,0,1,4.16.63,6,6,0,0,1,2.6,1.86,7.12,7.12,0,0,1,1.36,3,19.42,19.42,0,0,1,.39,4.12v9.46h-5.29Zm-1.42-5.82c-.43,0-1,0-1.63.06a8.22,8.22,0,0,0-1.87.32,4.27,4.27,0,0,0-1.54.81,1.84,1.84,0,0,0-.63,1.49,1.65,1.65,0,0,0,.88,1.53,3.61,3.61,0,0,0,1.84.5,5.54,5.54,0,0,0,1.63-.23,4.86,4.86,0,0,0,1.4-.65,3.24,3.24,0,0,0,1-1.07,3.14,3.14,0,0,0,.36-1.53v-1.23Z"/><path class="cls-1" d="M146.24,91.73h5.51v2.53h.08a4.28,4.28,0,0,1,.77-1.07,5.38,5.38,0,0,1,1.18-1,7,7,0,0,1,1.57-.69,6.55,6.55,0,0,1,1.92-.27,7.83,7.83,0,0,1,3.52.67,5.11,5.11,0,0,1,2.09,1.86,7.46,7.46,0,0,1,1,2.8,21,21,0,0,1,.27,3.48v10.27h-5.75v-9.12c0-.53,0-1.09-.06-1.66A5.28,5.28,0,0,0,158,98a2.8,2.8,0,0,0-.88-1.19,2.74,2.74,0,0,0-1.71-.46,3.53,3.53,0,0,0-1.8.4,2.76,2.76,0,0,0-1,1.07,4.11,4.11,0,0,0-.48,1.52,12.48,12.48,0,0,0-.12,1.76v9.27h-5.74Z"/><path class="cls-1" d="M178.65,97.21a4,4,0,0,0-3.33-1.57,3.15,3.15,0,0,0-1.42.34,1.22,1.22,0,0,0-.69,1.19,1.08,1.08,0,0,0,.71,1,10.69,10.69,0,0,0,1.8.57l2.34.54a8.73,8.73,0,0,1,2.34.9,5.2,5.2,0,0,1,1.8,1.66,5,5,0,0,1,.71,2.82,5.25,5.25,0,0,1-.79,3,6,6,0,0,1-2,1.88,8.71,8.71,0,0,1-2.76,1,16.53,16.53,0,0,1-3,.29,14.64,14.64,0,0,1-3.94-.56,7.31,7.31,0,0,1-3.37-2l3.48-3.87a5.6,5.6,0,0,0,1.79,1.51,4.72,4.72,0,0,0,2.27.52,5.17,5.17,0,0,0,1.81-.29,1.06,1.06,0,0,0,.8-1.05,1.17,1.17,0,0,0-.71-1.09,7.54,7.54,0,0,0-1.8-.61l-2.34-.54A9.54,9.54,0,0,1,170,102a4.6,4.6,0,0,1-2.51-4.45,5.64,5.64,0,0,1,.67-2.83,5.91,5.91,0,0,1,1.76-2,7.77,7.77,0,0,1,2.51-1.13,11.58,11.58,0,0,1,2.87-.36,13.39,13.39,0,0,1,3.72.54,6.91,6.91,0,0,1,3.18,1.91Z"/><path class="cls-1" d="M198.66,96.33H193.6v6.2a10,10,0,0,0,.08,1.4A2.74,2.74,0,0,0,194,105a1.69,1.69,0,0,0,.82.71,3.62,3.62,0,0,0,1.48.25,10.58,10.58,0,0,0,1.21-.09,2.13,2.13,0,0,0,1.13-.44v4.78a8.43,8.43,0,0,1-2,.46,17.53,17.53,0,0,1-2,.12,10.77,10.77,0,0,1-2.68-.31,6.08,6.08,0,0,1-2.14-1,4.49,4.49,0,0,1-1.44-1.75,6,6,0,0,1-.52-2.6V96.33h-3.67v-4.6h3.67V86.21h5.75v5.52h5.06Z"/><path class="cls-1" d="M200.7,101a9.85,9.85,0,0,1,.8-4,9.29,9.29,0,0,1,2.21-3.09A9.82,9.82,0,0,1,207,92a12.17,12.17,0,0,1,8.08,0,9.76,9.76,0,0,1,3.3,2,9.27,9.27,0,0,1,2.2,3.09,10.38,10.38,0,0,1,0,8,9.27,9.27,0,0,1-2.2,3.09,9.76,9.76,0,0,1-3.3,2,12.17,12.17,0,0,1-8.08,0,9.82,9.82,0,0,1-3.29-2,9.29,9.29,0,0,1-2.21-3.09A9.85,9.85,0,0,1,200.7,101Zm5.75,0a4.85,4.85,0,0,0,1.2,3.41,5.07,5.07,0,0,0,6.78,0,5.41,5.41,0,0,0,0-6.82,5.07,5.07,0,0,0-6.78,0A4.85,4.85,0,0,0,206.45,101Z"/><path class="cls-1" d="M224.67,91.73h5.52v2.53h.08a4.5,4.5,0,0,1,.76-1.07,5.44,5.44,0,0,1,1.19-1,6.83,6.83,0,0,1,1.57-.69,6.55,6.55,0,0,1,1.92-.27,7.86,7.86,0,0,1,3.52.67,5.18,5.18,0,0,1,2.09,1.86,7.29,7.29,0,0,1,1,2.8,21,21,0,0,1,.27,3.48v10.27h-5.74v-9.12c0-.53,0-1.09-.06-1.66a5,5,0,0,0-.35-1.59,2.64,2.64,0,0,0-.88-1.19,2.69,2.69,0,0,0-1.7-.46,3.53,3.53,0,0,0-1.8.4A2.86,2.86,0,0,0,231,97.8a4.52,4.52,0,0,0-.48,1.52,14.21,14.21,0,0,0-.11,1.76v9.27h-5.75Z"/><path class="cls-1" d="M82.44,125h18.2v5.52H88.42V136h11.3v5.51H88.42V152.1h-6Z"/><path class="cls-1" d="M114.49,149.76h-.08a5.37,5.37,0,0,1-2.54,2.15,8.86,8.86,0,0,1-3.36.65,8.36,8.36,0,0,1-2.5-.37,6.14,6.14,0,0,1-2.13-1.09,5.25,5.25,0,0,1-1.46-1.8,5.57,5.57,0,0,1-.53-2.49,5.67,5.67,0,0,1,.59-2.72,5.38,5.38,0,0,1,1.61-1.84,8.21,8.21,0,0,1,2.32-1.13,17,17,0,0,1,2.7-.59,23.84,23.84,0,0,1,2.8-.23c.93,0,1.79,0,2.58,0a3,3,0,0,0-1.09-2.43,4,4,0,0,0-2.59-.9,5.69,5.69,0,0,0-2.58.59,7.09,7.09,0,0,0-2.09,1.63L103.07,136a10.46,10.46,0,0,1,3.76-2.24,13.36,13.36,0,0,1,4.44-.75,11.67,11.67,0,0,1,4.16.63,6,6,0,0,1,2.6,1.86,7,7,0,0,1,1.36,3,19.42,19.42,0,0,1,.39,4.12v9.46h-5.29Zm-1.42-5.82q-.64,0-1.62.06a7.7,7.7,0,0,0-1.88.32,4.15,4.15,0,0,0-1.53.81,1.81,1.81,0,0,0-.64,1.49,1.65,1.65,0,0,0,.88,1.53,3.74,3.74,0,0,0,1.84.5,5.84,5.84,0,0,0,1.63-.23,4.74,4.74,0,0,0,1.4-.65,3.24,3.24,0,0,0,1-1.07,3.16,3.16,0,0,0,.36-1.54v-1.22Z"/><path class="cls-1" d="M123.68,133.48h5.51V136h.08a4.55,4.55,0,0,1,.77-1.07,5.62,5.62,0,0,1,1.18-1,6.92,6.92,0,0,1,1.58-.69,6.44,6.44,0,0,1,1.91-.27,7.37,7.37,0,0,1,3.47.8,5.1,5.1,0,0,1,2.28,2.53,6.19,6.19,0,0,1,2.41-2.56,7.29,7.29,0,0,1,3.49-.77,7.15,7.15,0,0,1,3.16.63,5.21,5.21,0,0,1,2,1.73,7.21,7.21,0,0,1,1.07,2.56,14.52,14.52,0,0,1,.33,3.16v11H147.2V141.26a4.3,4.3,0,0,0-.55-2.24,2.11,2.11,0,0,0-2-.94,3.87,3.87,0,0,0-1.66.32,2.81,2.81,0,0,0-1.08.9,3.67,3.67,0,0,0-.57,1.34,7,7,0,0,0-.17,1.61v9.85h-5.75v-9.85c0-.33,0-.74,0-1.22a4.45,4.45,0,0,0-.27-1.38,2.56,2.56,0,0,0-.74-1.11,2.21,2.21,0,0,0-1.52-.46,3.53,3.53,0,0,0-1.8.4,2.76,2.76,0,0,0-1,1.07,4.52,4.52,0,0,0-.48,1.52,12.37,12.37,0,0,0-.12,1.76v9.27h-5.74Z"/><path class="cls-1" d="M156.62,127.62a3.33,3.33,0,1,1,1,2.35A3.22,3.22,0,0,1,156.62,127.62Zm.46,5.86h5.74V152.1h-5.74Z"/><path class="cls-1" d="M167.09,123.14h5.74v29h-5.74Z"/><path class="cls-1" d="M187.64,155.13c-.38,1-.76,1.87-1.11,2.64a6.26,6.26,0,0,1-1.36,1.93,5.28,5.28,0,0,1-2.09,1.19,11.2,11.2,0,0,1-3.33.4,13.39,13.39,0,0,1-4.29-.69l.76-4.71a6.63,6.63,0,0,0,2.68.58,4.88,4.88,0,0,0,1.57-.21,2.74,2.74,0,0,0,1-.62,3.42,3.42,0,0,0,.67-1c.18-.39.37-.83.57-1.35l.43-1.07L175,133.48h6.2l4.79,12.3h.08l4.1-12.3h5.9Z"/><path class="cls-1" d="M228,132a5.87,5.87,0,0,0-2.17-1.64,7.06,7.06,0,0,0-3-.58,7.42,7.42,0,0,0-5.61,2.47,8.65,8.65,0,0,0-1.65,2.78,10.65,10.65,0,0,0,0,7,8.8,8.8,0,0,0,1.63,2.76,7.26,7.26,0,0,0,2.44,1.82,7.06,7.06,0,0,0,3,.65,6.76,6.76,0,0,0,3.26-.76,6.68,6.68,0,0,0,2.34-2.15l5,3.72a10.41,10.41,0,0,1-4.37,3.56,13.46,13.46,0,0,1-5.44,1.15,16.54,16.54,0,0,1-5.86-1,13.4,13.4,0,0,1-4.64-2.85,12.88,12.88,0,0,1-3-4.5,16.37,16.37,0,0,1,0-11.8,12.83,12.83,0,0,1,3-4.51,13.7,13.7,0,0,1,4.64-2.85,16.76,16.76,0,0,1,5.86-1,14.36,14.36,0,0,1,2.39.22,12.83,12.83,0,0,1,2.46.67,10.68,10.68,0,0,1,2.31,1.22,9.34,9.34,0,0,1,2,1.88Z"/><path class="cls-1" d="M241.3,123.14V136h.08a3.14,3.14,0,0,1,.65-1.07,4.75,4.75,0,0,1,1.11-1,6,6,0,0,1,1.53-.69,6.55,6.55,0,0,1,1.92-.27,7.86,7.86,0,0,1,3.52.67,5.11,5.11,0,0,1,2.09,1.86,7.48,7.48,0,0,1,1,2.79,22.42,22.42,0,0,1,.26,3.49V152.1h-5.74V143c0-.54,0-1.09-.06-1.67a5.12,5.12,0,0,0-.35-1.59,2.47,2.47,0,0,0-2.58-1.64,3.53,3.53,0,0,0-1.8.4,2.86,2.86,0,0,0-1.06,1.07,4.3,4.3,0,0,0-.47,1.52,12.37,12.37,0,0,0-.12,1.76v9.27h-5.75v-29Z"/><path class="cls-1" d="M257.13,127.62a3.33,3.33,0,0,1,5.69-2.36,3.33,3.33,0,1,1-5.69,2.36Zm.46,5.86h5.75V152.1h-5.75Z"/><path class="cls-1" d="M267.59,133.48h5.75v3h.07a7.13,7.13,0,0,1,2.19-2.59,5.54,5.54,0,0,1,3.18-.86c.33,0,.66,0,1,0a4.31,4.31,0,0,1,.92.15v5.25a9.48,9.48,0,0,0-1.2-.29,8.45,8.45,0,0,0-1.25-.09,6,6,0,0,0-2.6.46,3.38,3.38,0,0,0-1.48,1.28,4.94,4.94,0,0,0-.67,2,19.68,19.68,0,0,0-.15,2.53v7.78h-5.75Z"/><path class="cls-1" d="M282.29,142.79a9.85,9.85,0,0,1,.8-4,9.44,9.44,0,0,1,2.21-3.09,9.82,9.82,0,0,1,3.29-2,12.2,12.2,0,0,1,8.09,0,9.82,9.82,0,0,1,3.29,2,9.27,9.27,0,0,1,2.2,3.09,10.38,10.38,0,0,1,0,8,9.27,9.27,0,0,1-2.2,3.09,9.82,9.82,0,0,1-3.29,2,12.2,12.2,0,0,1-8.09,0,9.82,9.82,0,0,1-3.29-2,9.44,9.44,0,0,1-2.21-3.09A9.85,9.85,0,0,1,282.29,142.79Zm5.75,0a4.85,4.85,0,0,0,1.2,3.41,5.07,5.07,0,0,0,6.78,0,5.41,5.41,0,0,0,0-6.82,5.07,5.07,0,0,0-6.78,0A4.83,4.83,0,0,0,288,142.79Z"/><path class="cls-1" d="M306.52,133.48h5.29v2.45h.07a6.23,6.23,0,0,1,.9-1,6.85,6.85,0,0,1,1.31-.94,8.23,8.23,0,0,1,1.63-.69,6.31,6.31,0,0,1,1.87-.27,9.69,9.69,0,0,1,3.76.71,8.39,8.39,0,0,1,2.89,2,9.06,9.06,0,0,1,1.86,3.05,11.14,11.14,0,0,1,.65,3.87,11.89,11.89,0,0,1-.59,3.73,10.31,10.31,0,0,1-1.69,3.16,8.19,8.19,0,0,1-2.66,2.2,7.58,7.58,0,0,1-3.57.83,9.9,9.9,0,0,1-3.35-.56,5.43,5.43,0,0,1-2.55-1.89h-.07v10.72h-5.75Zm5.29,9.31a4.85,4.85,0,0,0,1.2,3.41,5.08,5.08,0,0,0,6.79,0,5.45,5.45,0,0,0,0-6.82,5.08,5.08,0,0,0-6.79,0A4.83,4.83,0,0,0,311.81,142.79Z"/><path class="cls-1" d="M330.08,133.48h5.74v3h.08a7.11,7.11,0,0,1,2.18-2.59,5.6,5.6,0,0,1,3.19-.86c.33,0,.66,0,1,0a4.31,4.31,0,0,1,.92.15v5.25a9.22,9.22,0,0,0-1.21-.29,8.22,8.22,0,0,0-1.24-.09,6.08,6.08,0,0,0-2.61.46,3.41,3.41,0,0,0-1.47,1.28,4.79,4.79,0,0,0-.67,2,19.59,19.59,0,0,0-.16,2.53v7.78h-5.74Z"/><path class="cls-1" d="M357,149.76h-.08a5.44,5.44,0,0,1-2.55,2.15,8.84,8.84,0,0,1-3.35.65,8.38,8.38,0,0,1-2.51-.37,6.23,6.23,0,0,1-2.13-1.09,5.11,5.11,0,0,1-1.45-1.8,5.44,5.44,0,0,1-.54-2.49,5.67,5.67,0,0,1,.6-2.72,5.35,5.35,0,0,1,1.6-1.84,8.21,8.21,0,0,1,2.32-1.13,17,17,0,0,1,2.7-.59,24,24,0,0,1,2.8-.23c.93,0,1.79,0,2.59,0a3,3,0,0,0-1.1-2.43,3.92,3.92,0,0,0-2.58-.9,5.7,5.7,0,0,0-2.59.59,7.22,7.22,0,0,0-2.09,1.63L345.58,136a10.33,10.33,0,0,1,3.75-2.24,13.37,13.37,0,0,1,4.45-.75,11.62,11.62,0,0,1,4.15.63,6,6,0,0,1,2.61,1.86,7.25,7.25,0,0,1,1.36,3,20.14,20.14,0,0,1,.38,4.12v9.46H357Zm-1.42-5.82c-.44,0-1,0-1.63.06a7.79,7.79,0,0,0-1.88.32,4.15,4.15,0,0,0-1.53.81,1.84,1.84,0,0,0-.63,1.49,1.63,1.63,0,0,0,.88,1.53,3.72,3.72,0,0,0,1.84.5,5.94,5.94,0,0,0,1.63-.23,4.86,4.86,0,0,0,1.4-.65,3.21,3.21,0,0,0,1-1.07,3.16,3.16,0,0,0,.37-1.54v-1.22Z"/><path class="cls-1" d="M378.44,139.49a3.32,3.32,0,0,0-1.19-1,3.47,3.47,0,0,0-1.65-.4,4.4,4.4,0,0,0-3.39,1.3,5.41,5.41,0,0,0,0,6.82,4.4,4.4,0,0,0,3.39,1.3,3.11,3.11,0,0,0,1.65-.42,4.83,4.83,0,0,0,1.19-1l3.79,4a7.3,7.3,0,0,1-3.16,1.93,11.89,11.89,0,0,1-3.47.56,11.7,11.7,0,0,1-4-.69,9.82,9.82,0,0,1-3.29-2,9.29,9.29,0,0,1-2.21-3.09,10.5,10.5,0,0,1,0-8,9.29,9.29,0,0,1,2.21-3.09,9.82,9.82,0,0,1,3.29-2,11.7,11.7,0,0,1,4-.69,11.89,11.89,0,0,1,3.47.56,7.3,7.3,0,0,1,3.16,1.93Z"/><path class="cls-1" d="M397.94,138.08h-5.06v6.2a11.89,11.89,0,0,0,.08,1.4,2.74,2.74,0,0,0,.34,1.09,1.72,1.72,0,0,0,.83.71,3.57,3.57,0,0,0,1.47.25,10.58,10.58,0,0,0,1.21-.09,2.1,2.1,0,0,0,1.13-.45V152a8.35,8.35,0,0,1-2,.46,17.7,17.7,0,0,1-2,.12,10.77,10.77,0,0,1-2.68-.31,6,6,0,0,1-2.14-1,4.56,4.56,0,0,1-1.44-1.74,6,6,0,0,1-.52-2.6v-8.85h-3.67v-4.6h3.67V128h5.75v5.52h5.06Z"/><path class="cls-1" d="M400.8,127.62a3.35,3.35,0,0,1,3.33-3.34,3.33,3.33,0,0,1,2.36,5.69,3.34,3.34,0,0,1-5.69-2.35Zm.46,5.86H407V152.1h-5.75Z"/><path class="cls-1" d="M423.48,139.49a3.32,3.32,0,0,0-1.19-1,3.47,3.47,0,0,0-1.65-.4,4.4,4.4,0,0,0-3.39,1.3,5.41,5.41,0,0,0,0,6.82,4.4,4.4,0,0,0,3.39,1.3,3.11,3.11,0,0,0,1.65-.42,5,5,0,0,0,1.19-1l3.79,4a7.36,7.36,0,0,1-3.16,1.93,11.89,11.89,0,0,1-3.47.56,11.7,11.7,0,0,1-4-.69,10,10,0,0,1-3.3-2,9.41,9.41,0,0,1-2.2-3.09,10.5,10.5,0,0,1,0-8,9.41,9.41,0,0,1,2.2-3.09,10,10,0,0,1,3.3-2,11.7,11.7,0,0,1,4-.69,11.89,11.89,0,0,1,3.47.56,7.36,7.36,0,0,1,3.16,1.93Z"/><path class="cls-1" d="M102.25,187.45l6,6.4h-7.39l-2.26-2.57A10.42,10.42,0,0,1,95,193.77a11.75,11.75,0,0,1-4.35.77,12.86,12.86,0,0,1-3.56-.5A9.67,9.67,0,0,1,84,192.53,7.62,7.62,0,0,1,81.87,190a7.51,7.51,0,0,1-.81-3.56,6.86,6.86,0,0,1,.45-2.48,7.6,7.6,0,0,1,1.22-2.12,8.51,8.51,0,0,1,1.82-1.67A9.37,9.37,0,0,1,86.81,179c-.43-.48-.84-.94-1.21-1.38a8.06,8.06,0,0,1-.95-1.38,6.38,6.38,0,0,1-.62-1.53,7.17,7.17,0,0,1-.21-1.8,6.5,6.5,0,0,1,.71-3.14,6.25,6.25,0,0,1,1.9-2.15,7.93,7.93,0,0,1,2.72-1.22,12.68,12.68,0,0,1,3.14-.39,10.85,10.85,0,0,1,3,.41,7.43,7.43,0,0,1,2.51,1.22,6,6,0,0,1,1.74,2.07,6.26,6.26,0,0,1,.65,3,6.14,6.14,0,0,1-.4,2.26,7.91,7.91,0,0,1-1.09,1.94,8.92,8.92,0,0,1-1.59,1.6,11.89,11.89,0,0,1-1.94,1.25l3.49,3.72,2.64-3.61H108Zm-11.88-5.17c-.38.23-.76.46-1.13.71a6.07,6.07,0,0,0-1,.8,3.46,3.46,0,0,0-.71,1,3.11,3.11,0,0,0-.27,1.34,3,3,0,0,0,.31,1.38,3.14,3.14,0,0,0,.8,1,3.73,3.73,0,0,0,1.17.67,3.8,3.8,0,0,0,1.36.25,4.53,4.53,0,0,0,2.32-.57,13.41,13.41,0,0,0,1.93-1.42Zm1.84-11.65a2.69,2.69,0,0,0-1.87.69,2.45,2.45,0,0,0-.54,2.82,5.52,5.52,0,0,0,.56.92,6.93,6.93,0,0,0,.72.82q.4.39.75.69c.31-.18.64-.39,1-.63a7.76,7.76,0,0,0,1-.81,4.39,4.39,0,0,0,.77-1,2.12,2.12,0,0,0,.31-1.09,2.21,2.21,0,0,0-.79-1.82A2.94,2.94,0,0,0,92.21,170.63Z"/><path class="cls-1" d="M119.8,166.72h6.51l4.33,17.4h.08l5.67-17.4h5.55l5.63,17.86h.08l4.56-17.86h6l-7.93,27.13H145l-6-18.77H139l-6,18.77h-5.14Z"/><path class="cls-1" d="M176.2,190.63a9.28,9.28,0,0,1-3.49,2.72,10.44,10.44,0,0,1-4.37,1,11.7,11.7,0,0,1-4-.69,9.68,9.68,0,0,1-3.29-2,9.15,9.15,0,0,1-2.21-3.08,10.5,10.5,0,0,1,0-8,9.29,9.29,0,0,1,2.21-3.09,9.82,9.82,0,0,1,3.29-2,11.7,11.7,0,0,1,4-.69,9.16,9.16,0,0,1,3.62.69,7.54,7.54,0,0,1,2.76,2,9.13,9.13,0,0,1,1.74,3.09,12.38,12.38,0,0,1,.62,4v1.8H163.74a4.51,4.51,0,0,0,1.5,2.62,4.22,4.22,0,0,0,2.83,1,4.33,4.33,0,0,0,2.4-.63,6.41,6.41,0,0,0,1.7-1.63Zm-4.87-8.2a3.29,3.29,0,0,0-1-2.49,3.39,3.39,0,0,0-2.56-1,4.14,4.14,0,0,0-2.94,1.09,3.5,3.5,0,0,0-.8,1.11,3.77,3.77,0,0,0-.33,1.32Z"/><path class="cls-1" d="M180.6,164.88h5.74v29H180.6Z"/><path class="cls-1" d="M190.6,164.88h5.75v29H190.6Z"/><path class="cls-1" d="M200.56,175.23h5.52v2.53h.08a4.75,4.75,0,0,1,.76-1.08,6,6,0,0,1,1.19-1,7,7,0,0,1,1.57-.69,6.55,6.55,0,0,1,1.92-.27,7.86,7.86,0,0,1,3.52.67,5.11,5.11,0,0,1,2.09,1.86,7.48,7.48,0,0,1,1,2.79,22.42,22.42,0,0,1,.26,3.49v10.27h-5.74v-9.12c0-.54,0-1.09-.06-1.67a5.42,5.42,0,0,0-.34-1.59,2.77,2.77,0,0,0-.89-1.18,2.69,2.69,0,0,0-1.7-.46,3.53,3.53,0,0,0-1.8.4,2.7,2.7,0,0,0-1.05,1.07,4.12,4.12,0,0,0-.48,1.51,12.62,12.62,0,0,0-.12,1.77v9.27h-5.75Z"/><path class="cls-1" d="M239.94,190.63a9.17,9.17,0,0,1-3.48,2.72,10.44,10.44,0,0,1-4.37,1,11.7,11.7,0,0,1-4-.69,9.72,9.72,0,0,1-3.3-2,9.27,9.27,0,0,1-2.2-3.08,10.5,10.5,0,0,1,0-8,9.41,9.41,0,0,1,2.2-3.09,9.86,9.86,0,0,1,3.3-2,11.7,11.7,0,0,1,4-.69,9.2,9.2,0,0,1,3.62.69,7.54,7.54,0,0,1,2.76,2,9.13,9.13,0,0,1,1.74,3.09,12.38,12.38,0,0,1,.62,4v1.8H227.49A4.51,4.51,0,0,0,229,189a4.22,4.22,0,0,0,2.83,1,4.33,4.33,0,0,0,2.4-.63,6.41,6.41,0,0,0,1.7-1.63Zm-4.86-8.2a3.4,3.4,0,0,0-3.53-3.52,4.14,4.14,0,0,0-2.93,1.09,3.5,3.5,0,0,0-.8,1.11,3.77,3.77,0,0,0-.33,1.32Z"/><path class="cls-1" d="M254.48,180.71a4,4,0,0,0-3.33-1.57,3.12,3.12,0,0,0-1.42.34,1.22,1.22,0,0,0-.69,1.19,1.06,1.06,0,0,0,.71,1,9.31,9.31,0,0,0,1.8.58l2.34.54a8.73,8.73,0,0,1,2.34.9,5.29,5.29,0,0,1,1.8,1.66,5,5,0,0,1,.71,2.82,5.25,5.25,0,0,1-.79,3,5.91,5.91,0,0,1-2,1.87,8.49,8.49,0,0,1-2.76,1,16.53,16.53,0,0,1-3,.29,14.59,14.59,0,0,1-3.94-.56,7.4,7.4,0,0,1-3.37-2l3.48-3.87a5.81,5.81,0,0,0,1.78,1.51,4.79,4.79,0,0,0,2.28.52,5.31,5.31,0,0,0,1.8-.29,1.06,1.06,0,0,0,.81-1.05,1.16,1.16,0,0,0-.71-1.09,7.51,7.51,0,0,0-1.8-.62l-2.34-.53a9.54,9.54,0,0,1-2.33-.86,5,5,0,0,1-1.81-1.63,5,5,0,0,1-.7-2.82,5.62,5.62,0,0,1,.67-2.83,5.82,5.82,0,0,1,1.76-2,7.77,7.77,0,0,1,2.51-1.13,11.58,11.58,0,0,1,2.87-.36,13.39,13.39,0,0,1,3.72.54,6.83,6.83,0,0,1,3.18,1.91Z"/><path class="cls-1" d="M272,180.71a4,4,0,0,0-3.33-1.57,3.15,3.15,0,0,0-1.42.34,1.22,1.22,0,0,0-.69,1.19,1.06,1.06,0,0,0,.71,1,9.31,9.31,0,0,0,1.8.58l2.34.54a8.73,8.73,0,0,1,2.34.9,5.29,5.29,0,0,1,1.8,1.66,5,5,0,0,1,.71,2.82,5.25,5.25,0,0,1-.79,3,5.91,5.91,0,0,1-2,1.87,8.49,8.49,0,0,1-2.76,1,16.53,16.53,0,0,1-3,.29,14.64,14.64,0,0,1-3.94-.56,7.4,7.4,0,0,1-3.37-2l3.48-3.87a5.73,5.73,0,0,0,1.79,1.51,4.72,4.72,0,0,0,2.27.52,5.41,5.41,0,0,0,1.81-.29,1.06,1.06,0,0,0,.8-1.05,1.16,1.16,0,0,0-.71-1.09,7.51,7.51,0,0,0-1.8-.62l-2.34-.53a9.54,9.54,0,0,1-2.33-.86,4.6,4.6,0,0,1-2.51-4.45,5.62,5.62,0,0,1,.67-2.83,5.82,5.82,0,0,1,1.76-2,7.77,7.77,0,0,1,2.51-1.13,11.58,11.58,0,0,1,2.87-.36,13.39,13.39,0,0,1,3.72.54,6.83,6.83,0,0,1,3.18,1.91Z"/><path class="cls-2" d="M64.88,28.18c-.54,1.55-1,3.29-1.55,5.14-.27.92-.56,1.86-.89,2.81s-.67,1.94-1.08,2.92c-2,5.23-3.89,10.42-5.43,15.58-.19.65-.39,1.29-.59,1.93s-.34,1.29-.52,1.93l-.51,1.93-.26,1-.22,1c-.28,1.28-.59,2.54-.81,3.83l-.36,1.92L52.37,70a120.23,120.23,0,0,0-1.23,15.51c-.1,5.18.08,10.37.37,15.57.57,10.4,1.68,20.86,2.06,31.59A148,148,0,0,1,53.33,149a87.85,87.85,0,0,1-2.75,16.47c-.81,3-1.86,6-2.88,8.78s-2,5.61-3,8.39c-1.89,5.56-3.66,11.06-5.16,16.61a96.11,96.11,0,0,0-3.22,16.94c-.16,1.44-.15,2.88-.18,4.34,0,.72.06,1.45.09,2.17,0,.37,0,.73.07,1.09l.14,1.09a28.21,28.21,0,0,0,2.42,8.48,27.35,27.35,0,0,1-2.55-9.55,66.77,66.77,0,0,1,0-10,125.89,125.89,0,0,1,3.22-19.34c1.48-6.28,3.2-12.52,5.08-19.07.42-1.48.87-3,1.32-4.55s.85-3.07,1.16-4.68.61-3.24.89-4.89.45-3.35.58-5.06A184.24,184.24,0,0,0,49,135.45c-.24-8.64-1-16.11-1.49-22.32s-1-11.15-1.22-14.75-.41-5.85-.46-6.66-.12-.19,0,1.93c-.07-1.43-.14-2.75-.27-4s-.22-2.5-.35-3.73-.22-2.47-.31-3.76-.11-2.62-.1-4.06A76.15,76.15,0,0,1,47.2,61.56a153.49,153.49,0,0,1,4.94-14.79,54.25,54.25,0,0,1,2.27-6.84c2.7-6,5.54-11.58,8.59-17.41l10-19-1,2.7C73.47,3.72,74.22,2.47,75.78,0,72.54,8.05,68.13,18.69,64.88,28.18Z"/><path class="cls-3" d="M34.36,82c.92,1.92,2.41,4.08,3.08,6.76a179.2,179.2,0,0,1,4.84,20.66,174.07,174.07,0,0,1,2.33,20.27,131.25,131.25,0,0,1-.38,20.3,93,93,0,0,1-1.59,10.24c-.37,1.7-.81,3.43-1.27,5.07s-.91,3.35-1.37,5c-2,7.54-3.88,14.61-5.65,21.66A90.63,90.63,0,0,0,32.2,202.6a43,43,0,0,0,.26,11.08,57.75,57.75,0,0,1-.51-6.29c0-2.1.11-4.18.25-6.29.3-4.23,1-8.26,1.62-12.27s1.3-8,2-12.27c.62-3.82,1.2-8.09,1.89-12.46.18-1.1.35-2.16.5-3.24s.29-2.15.43-3.23c.25-2.16.5-4.32.75-6.45a104.06,104.06,0,0,0,.59-13.9c-.1-3.87-.34-6.94-.58-9.15-.5-4.44-.83-5.49-.53-2.9-.39-3.49-1.57-5.88-2.36-9.26-1.36-6.85-1.87-13.16-3.1-19.31a29.58,29.58,0,0,1-1.31-4.23c-.73-4-1.42-7.83-2.43-11.79a59.74,59.74,0,0,0-1.85-6.08,30.49,30.49,0,0,0-3-6.25C25.43,69,26,69.65,26,69.65a22.18,22.18,0,0,0-1-2.06,7.53,7.53,0,0,0-1.44-1.85,11.06,11.06,0,0,1,3.37,3.12A41,41,0,0,1,29.68,73C31.42,75.89,33,79,34.36,82Z"/><path class="cls-2" d="M32.15,23.35c-.49,1-1.51,2.06-1.66,3.46A55.17,55.17,0,0,0,29.3,37.65a36.41,36.41,0,0,0,1.46,10.7A24.59,24.59,0,0,0,33,53.44l1.21,2.06c.41.64.7,1.36,1,2a39.24,39.24,0,0,1,2.93,9.21A68.81,68.81,0,0,1,39,77.67a99.29,99.29,0,0,0,.4,11.06,24.22,24.22,0,0,1-.16-6.36c.68-4.22,1.4-8,1.86-12.32.09-1,.18-2,.26-3.11s.12-2.22,0-3.38A19.68,19.68,0,0,0,40,56.67,40.66,40.66,0,0,0,38.2,53c-.28-.54-.56-1-.83-1.54a12.89,12.89,0,0,1-.62-1.23,16.68,16.68,0,0,1-1.27-4c-.35-2-.21-2.59,0-1.38-.26-1.63.49-2.89.67-4.49.17-3.23-.39-6.26-.27-9.31A6.82,6.82,0,0,0,36.36,29c0-2-.11-3.94,0-6a25.29,25.29,0,0,1,1.14-6.53l-.58.73c.1-.93.15-1.39.32-2.32C35.32,17,33.65,20.38,32.15,23.35Z"/><path class="cls-3" d="M76.35,44.27c-1.1,1-2.71,2.1-3.72,3.79A105.44,105.44,0,0,0,60.05,74.55c-.38,1.13-.68,2.28-1,3.42l-.48,1.72c-.15.58-.27,1.18-.4,1.76l-.39,1.77-.2.89-.14.89c-.18,1.19-.38,2.38-.54,3.57a98.06,98.06,0,0,0-.57,14.59,230.68,230.68,0,0,0,3,31.14,83.59,83.59,0,0,1-1-8.84,156.42,156.42,0,0,1,.67-17.33c.14-1.34.28-2.75.51-4.19.1-.73.2-1.46.31-2.21s.25-1.48.36-2.24.23-1.5.35-2.26.25-1.51.36-2.27c.2-1.51.45-3,.6-4.49,0-.47.09-.93.15-1.37s.14-.88.21-1.31c.15-.86.29-1.69.42-2.48.36-1.56.69-3,1-4.27s.76-2.44,1.09-3.45.68-1.87,1-2.59a19.41,19.41,0,0,1,1.16-2.62c.17-.31.11,0-.22.79a13.41,13.41,0,0,1,1.66-2.89,25.84,25.84,0,0,0,1.91-2.74c2.24-4.28,3.54-8.49,5.48-12.39a12.73,12.73,0,0,0,.93-1.21A8,8,0,0,0,77,52.63c1.15-2.58,2.3-5,3.69-7.52.35-.62.72-1.24,1.11-1.87s.83-1.23,1.28-1.86a27.24,27.24,0,0,1,3.2-3.65l-1.11.63c.4-.5.68-.91,1-1.27s.65-.73,1.09-1.22a26.51,26.51,0,0,0-5.64,3.58C79.83,41,78,42.64,76.35,44.27Z"/><path class="cls-2" d="M9.8,106.09a14,14,0,0,1,1.39,1.32,6.16,6.16,0,0,0,.77.67,5.32,5.32,0,0,0,.87.59,38,38,0,0,1,8.45,7.13,39.69,39.69,0,0,1,6,8.93l1.1,2.46.91,2.55a11.42,11.42,0,0,1,.38,1.3l.36,1.32.18.67.05.16s0-.11,0-.05h0v.07l0,.09.07.36.28,1.44c.1.48.2,1,.28,1.44l.21,1.39c.07.47.15.93.22,1.4l.15,1.44c.05.49.11,1,.16,1.46s.06,1,.1,1.47l.09,1.48c0,.5,0,1,0,1.5a71.07,71.07,0,0,1-1.25,12.86c-.37,2.09-.82,4.16-1.28,6.27s-.95,4.24-1.27,6.49a40.23,40.23,0,0,1,1.66-7.3,116.19,116.19,0,0,0,4.45-14c1-4.49,2.24-10.21,1.28-15.61-.15-.79-.29-1.56-.43-2.29l-.09-.55v-.13l0-.07,0-.14-.06-.28c-.09-.37-.18-.74-.27-1.09-.17-.71-.31-1.4-.49-2s-.39-1.25-.58-1.82-.32-1.14-.53-1.64L32.36,124l-.47-1.25c-.14-.39-.33-.73-.46-1-1.14-2.54-1.33-3.21-.59-1.75-.22-.51-.44-1-.62-1.44s-.32-.94-.45-1.41a12.3,12.3,0,0,0-1.14-2.89,15.44,15.44,0,0,0-.95-1.39c-.35-.43-.7-.84-1.07-1.25s-.72-.79-1.11-1.16-.8-.7-1.2-1l-1.2-1c-.42-.31-.85-.59-1.27-.88l-1.24-.86c-.41-.29-.86-.52-1.27-.79a8,8,0,0,0-2.22-1.75l-1.79-.75-.44-.17-.46-.15-.91-.27c-.61-.18-1.21-.37-1.82-.53l-1.86-.4-.94-.21-1-.15c-.64-.09-1.3-.2-2-.32l-2.09-.22c-.35,0-.72-.1-1.07-.13l-1.09,0,1,.39L0,101.4c.77.3,1.61.59,2.49.88s1.69.71,2.53,1,1.68.87,2.49,1.28S9.07,105.61,9.8,106.09Z"/><path class="cls-2" d="M110.17,45.16c-.49-.09-1-.28-1.61-.41a3.81,3.81,0,0,0-1.81-.07,51.58,51.58,0,0,0-9.38,2.2l-2.2.78L93,48.55a23.54,23.54,0,0,0-2.15,1.05,16.06,16.06,0,0,0-2.1,1.2,28.58,28.58,0,0,0-7,6.36,40.33,40.33,0,0,0-5,7.94C73.52,71.29,71.63,77,68.73,83a51.2,51.2,0,0,1,2.47-5c2.1-3.12,4-6,6.29-8.91.52-.66,1.11-1.32,1.69-2l1.88-2c.67-.66,1.28-1.37,1.9-2.05.32-.34.62-.68.91-1s.56-.72.85-1.06l1-1.26c.34-.41.71-.73,1-1.08s.66-.67,1-1l1-.78.9-.69.86-.52L92,54.82c1.69-.7,2.15-.73,1.19-.28,1.26-.63,2.63-.17,4.07-.45,2.85-.7,5.17-2.16,7.72-3a5.65,5.65,0,0,0,1.88-.17c1.62-.67,3.19-1.33,4.91-1.87a18,18,0,0,1,5.75-.89l-.76-.34c.81-.17,1.21-.27,2.05-.39C116.44,46.23,113.13,45.64,110.17,45.16Z"/><path class="cls-4" d="M16.51,188.23c.06.51.12,1,.21,1.53l-.15-1.09C16.56,188.52,16.53,188.38,16.51,188.23Z"/><path class="cls-4" d="M16.79,190.26c.09.53.24,1.05.36,1.57a10.68,10.68,0,0,0,.56,1.85,24.72,24.72,0,0,1-1-3.92Z"/><path class="cls-4" d="M16.38,185.47c0,.73,0,1.46.09,2.17l0-.57Z"/><path class="cls-5" d="M66,175.83a26.8,26.8,0,0,0-5.8-9.46A26.52,26.52,0,0,0,50.88,160l-.45-.16c.46-.1.92-.21,1.37-.33a18.17,18.17,0,0,0,2.07-.36,13.53,13.53,0,0,0,2-.74,21,21,0,0,0,4.52-3.36,19.79,19.79,0,0,0,1.86-2,12.56,12.56,0,0,0,.82-1.1,12.49,12.49,0,0,0,.77-1.13l.71-1.19c.24-.4.41-.84.62-1.25a25.48,25.48,0,0,0,1.09-2.63,26.75,26.75,0,0,0,1.26-5.93L67,141.28c0-.79,0-1.36,0-1.93s-.11-1.14-.19-1.9a23,23,0,0,1-2.52,6.88,17.45,17.45,0,0,1-4.91,5.5A13,13,0,0,1,57.16,151a20.47,20.47,0,0,0-2.41,1.17,17.13,17.13,0,0,1-23.59-8.6,17.76,17.76,0,0,1,0-13.87,18.18,18.18,0,0,1,10.92-10.09,18.78,18.78,0,0,1,23.72,12.77c-.19-.81-.54-1.57-.79-2.37-.16-.4-.35-.78-.52-1.18l-.24-.59c-.09-.2-.2-.39-.29-.58-.2-.39-.39-.77-.58-1.16l-.68-1.09-.35-.54-.38-.51-.79-1-.87-.93-.44-.46c-.15-.15-.32-.29-.47-.43l-1-.84c-.33-.26-.69-.5-1-.76a20.71,20.71,0,0,0-9.92-3.67,20,20,0,0,0-2.21-.12L46,116a17.49,17.49,0,0,0,6.81-3.44,16.75,16.75,0,0,0,5.35-7.8c-.11.28-.22.56-.32.84s-.33.64-.5,1a5.92,5.92,0,0,1-.58.92c-.22.28-.43.57-.65.86l-.71.78-.35.38-.38.36c-.26.22-.51.45-.76.68l-.82.61-.4.3-.43.26-.85.51c-.29.16-.59.29-.89.44A14.58,14.58,0,0,1,36,111.4a20.68,20.68,0,0,1-2.86-2.49c-.22-.22-.41-.48-.62-.7a7.75,7.75,0,0,1-.59-.72l-.57-.74c-.17-.26-.34-.51-.52-.76a13.65,13.65,0,0,1-1.76-4c-.07-.33-.13-.65-.19-1,0-.16-.07-.32-.09-.47s0-.32,0-.47c0-.31-.05-.62-.07-.91s0-.59,0-.87A12,12,0,0,1,30,93.21a9,9,0,0,1,.81-1.35c.12-.16.21-.3.3-.41a2.24,2.24,0,0,1,.22-.22c.11-.1.14-.1.08,0s-.2.29-.38.61a5.61,5.61,0,0,1,2-1.82c.36-.23.78-.38,1.16-.58s.81-.35,1.2-.58a22.92,22.92,0,0,1,4.82-2.22,12.45,12.45,0,0,1,5.19-.56,8.89,8.89,0,0,0,1.14.48,4.63,4.63,0,0,0,1.16.42A15.65,15.65,0,0,1,51,88.15,11.36,11.36,0,0,1,52.5,89a6.35,6.35,0,0,1,.74.54,6.53,6.53,0,0,1,.71.59l.69.66a9.09,9.09,0,0,1,.63.74,12.05,12.05,0,0,1,1.16,1.67,12.63,12.63,0,0,1,1.43,4.2L58,96.25c.19.57.36,1,.49,1.45s.21.9.35,1.51a14.53,14.53,0,0,0,0-6.46,18.35,18.35,0,0,0-3.1-6.66c-.51-.62-1-1.44-1.62-2.15A7.56,7.56,0,0,0,51.64,82a20.77,20.77,0,0,0-1.92-.89,12.5,12.5,0,0,0,1.33-.37,14.75,14.75,0,0,0,9-8.35,15.14,15.14,0,0,0-.66-12.86,5,5,0,0,0-1.58-1.87c-.6-.5-1.28-.82-1.78-1.2A14.78,14.78,0,0,0,53.17,55a13.11,13.11,0,0,0,2.47-.6,3.93,3.93,0,0,0,1-.08,3,3,0,0,0,.94-.35,9.76,9.76,0,0,0,3.24-4,13.92,13.92,0,0,0,.79-2.36A15.83,15.83,0,0,0,62,45.05l-.38.58c-.06-.33-.1-.57-.16-.8s-.15-.46-.25-.76a10,10,0,0,1-1.66,2.43A5.5,5.5,0,0,1,57.27,48a3.15,3.15,0,0,1-.93,0,1.13,1.13,0,0,0-.8.14,5.2,5.2,0,0,1-3.83.24,5.3,5.3,0,0,1-3-2.51,5.73,5.73,0,0,1-.41-4.28,6.19,6.19,0,0,1,3.33-3.83,6.69,6.69,0,0,1,3.13-.47,6.92,6.92,0,0,1,5.85,4.86h0c-.08-.32-.22-.62-.31-.93s-.22-.63-.34-.94a7.72,7.72,0,0,0-.9-1.85,8.35,8.35,0,0,0-1.4-1.58,8.8,8.8,0,0,0-4.08-2,9.45,9.45,0,0,0-5,.32,8.26,8.26,0,0,0-2.45,1.45,7.11,7.11,0,0,0-1.73,2.28,11.42,11.42,0,0,0-1,3.12,11.84,11.84,0,0,0-.12,1.41v.66c0,.22,0,.43,0,.63a11.57,11.57,0,0,0,1,3.71c.18.44.36.77.49,1l.27.54c.09.19-.06.11-.36-.37a14.21,14.21,0,0,1,.93,1.93,5.76,5.76,0,0,0,1.25,1.92,6.66,6.66,0,0,0,1,.65,9.42,9.42,0,0,0-2.16.4l1.13.33c.33.12.65.27,1.07.44l-.89.15a8.91,8.91,0,0,1,3.08,1.14,9,9,0,0,1,2.16,1.93,10.06,10.06,0,0,1,2,4.65,2.42,2.42,0,0,0,.29.81,4.82,4.82,0,0,0,.39.79,8.5,8.5,0,0,1-.59,3.61,23.72,23.72,0,0,1-1.57,3.26c-.26.58-.41,1.18-.65,1.77a3.27,3.27,0,0,1-1.2,1.53c.46-.28.58-.37.46-.19a2.44,2.44,0,0,1-.44.38,5.51,5.51,0,0,1-1,.59,8.3,8.3,0,0,1-3.66,1h-.62L45,76.6a3.2,3.2,0,0,1-.67-.1l-.69-.14a9.42,9.42,0,0,1-2.77-1.31,24.13,24.13,0,0,1-2.06-1.63,16.45,16.45,0,0,1-1.83-2A10.52,10.52,0,0,1,35,66.5a10.77,10.77,0,0,1,.78-5.65,12.53,12.53,0,0,1,1.5-2.59,14,14,0,0,1,1-1.16l.57-.56.64-.51a4.45,4.45,0,0,1,.68-.45,7.33,7.33,0,0,1,.73-.39l.65-.25a12.69,12.69,0,0,0-6,4,13.24,13.24,0,0,0-2.68,5.17,13.77,13.77,0,0,0-.14,6.17A13.33,13.33,0,0,0,35,75.66a14,14,0,0,0,4.35,4L40,80a19,19,0,0,0-4.55,1.22A18.64,18.64,0,0,0,24.83,92.42a18.37,18.37,0,0,0,1.3,14.89,18,18,0,0,0,5,5.66A17.38,17.38,0,0,0,38,116a17.67,17.67,0,0,0,3.59.42A21.81,21.81,0,0,0,36.46,118a21,21,0,0,0-5.11,3.41c-.39.34-.72.74-1.08,1.11l-.53.58c-.17.19-.31.4-.47.61-.31.41-.62.83-.9,1.25s-.52.89-.76,1.33a24.28,24.28,0,0,0-2.31,6.66c-.09.53-.15,1.06-.21,1.57,0,.26-.07.51-.09.76l0,.75c0,.49,0,1,0,1.45s.05.92.08,1.37A23.33,23.33,0,0,0,27.12,147c.23.46.39.9.6,1.26s.39.68.54,1,.29.51.39.7.21.33.27.43.12.24,0,.1a5.33,5.33,0,0,1-.69-1l.31.52.32.48q.32.48.6,1a9.77,9.77,0,0,0,.59.93c.19.31.39.61.59.91a8,8,0,0,0,.64.89c.23.29.46.59.7.88a7.16,7.16,0,0,0,.8.86c.29.27.59.55.92.83a16.76,16.76,0,0,0,2.72,1.68A27.2,27.2,0,0,0,28,161.21a12.88,12.88,0,0,0-3.48,2.6c-1,.94-1.7,2-2.47,2.88a26.39,26.39,0,0,0-4.88,9.36,22.6,22.6,0,0,0-.63,9.42l.4-2.26c.15-.67.36-1.33.6-2.19l0,1.78a20.65,20.65,0,0,1,2-6.46,21,21,0,0,1,1.66-2.63c.31-.39.57-.82.91-1.18s.67-.71,1-1.07a12.07,12.07,0,0,1,1.05-1c.37-.3.69-.64,1.08-.9a20,20,0,0,1,2.3-1.53c.4-.22.78-.47,1.18-.67l1.24-.56c.21-.09.4-.2.62-.28l.64-.22,1.28-.45a12.47,12.47,0,0,0,1.86-.68c.74-.24,1.49-.49,1.85-.66a20.49,20.49,0,0,1,8.35.52,27.78,27.78,0,0,1,7.9,3.5c.31.2.63.38.94.56a9,9,0,0,1,.91.52l.87.55a6.93,6.93,0,0,1,.85.56l.81.63a5.74,5.74,0,0,1,.78.7c.25.26.49.52.74.81l.36.44c.11.15.21.32.31.49-.28-.52-.53-.81-.62-1s-.06-.14.1,0,.19.2.33.37.27.39.45.65l.6.92c.23.34.4.77.64,1.22a19.8,19.8,0,0,1,2.09,8.08c0,.45,0,.9,0,1.37s-.06.94-.1,1.43c0,.25,0,.49,0,.74s-.08.5-.12.75c-.1.5-.18,1-.28,1.54a22.25,22.25,0,0,1-2.67,6.31c-.27.4-.54.81-.8,1.23l-.9,1.17c-.15.2-.29.41-.45.59l-.5.56c-.34.36-.63.77-1,1.11a28.16,28.16,0,0,1-4.63,3.79,22.54,22.54,0,0,1-22.43,1.05c-.43-.23-.88-.44-1.31-.69l-1.26-.81-.63-.42-.58-.47-1.19-1-1.11-1.06-.55-.54-.51-.59-1-1.21-.92-1.3c-.15-.22-.31-.44-.45-.67l-.38-.71c-.24-.48-.5-1-.72-1.44l-.45-1.21a23.93,23.93,0,0,0,1.12,2.77,22.33,22.33,0,0,0,1.34,2.45,13.05,13.05,0,0,0,.78,1.16l.82,1.13.91,1.05a13,13,0,0,0,.95,1,22.72,22.72,0,0,0,2.07,1.86,25.68,25.68,0,0,0,10.09,4.94A26.2,26.2,0,0,0,47.54,210a25.29,25.29,0,0,0,9.86-4.6A26.17,26.17,0,0,0,66,175.83Z"/><path class="cls-4" d="M16.48,187.87c0,.12,0,.24,0,.36,0-.19,0-.39,0-.59Z"/><path class="cls-4" d="M65.91,132.62a19.8,19.8,0,0,1,.52,2.43A15.7,15.7,0,0,0,65.91,132.62Z"/><path class="cls-4" d="M66.43,135.05c0,.12,0,.23,0,.35C66.46,135.28,66.44,135.17,66.43,135.05Z"/><path class="cls-4" d="M66.47,135.4l0,.31Z"/><path class="cls-4" d="M66.59,136.79c0,.22,0,.44,0,.66C66.62,137.23,66.6,137,66.59,136.79Z"/><path class="cls-4" d="M65.91,132.62c0-.1,0-.19-.08-.29s0,0,0,.06Z"/><path class="cls-4" d="M66.5,135.71q.06.54.09,1.08Q66.56,136.25,66.5,135.71Z"/><path class="cls-4" d="M58.87,101.41a16.14,16.14,0,0,0,.13-2.2C59,99.94,58.94,100.68,58.87,101.41Z"/><path class="cls-4" d="M58.87,101.41a17.49,17.49,0,0,1-.72,3.3,8.54,8.54,0,0,0,.36-1.22A11.32,11.32,0,0,0,58.87,101.41Z"/><path class="cls-4" d="M42.45,54.68a5,5,0,0,0-.91.26,13.09,13.09,0,0,1,2.25-.5A8.75,8.75,0,0,0,42.45,54.68Z"/><path class="cls-4" d="M43.79,54.44c.64-.07,1.27-.09,1.9-.11A13.37,13.37,0,0,0,43.79,54.44Z"/><path class="cls-4" d="M60.64,42.13a3,3,0,0,1,.1.32C60.71,42.34,60.68,42.24,60.64,42.13Z"/><path class="cls-4" d="M60.91,43.19c0,.29.07.58.09.88C61,43.77,61,43.48,60.91,43.19Z"/><path class="cls-4" d="M60.74,42.45c.06.24.12.48.16.72A6.2,6.2,0,0,0,60.74,42.45Z"/><path class="cls-4" d="M60.9,43.17v0Z"/><path class="cls-5" d="M45.91,25.31c-.11.27-.36.6-.5,1a1.5,1.5,0,0,0-.06,1.19,7,7,0,0,0,4.16,4.59,6.8,6.8,0,0,0,5.79-.38,6.36,6.36,0,0,0,3.14-4.36,5.56,5.56,0,0,0-1.28-4.73,5.34,5.34,0,0,0-4.1-2.06,4.89,4.89,0,0,0-3.74,1.63,6.46,6.46,0,0,1,.87-.78,1.67,1.67,0,0,1,1.12-.34,3.3,3.3,0,0,1,3,2.25,2.25,2.25,0,0,1-.11,1.46c-.18.41-.34.63-.25.94a1.14,1.14,0,0,1-.26,1,1,1,0,0,1-.63.38c-.36,0-.45-.14-.27-.17-.13,0-.27-.18-.35-.42a4.37,4.37,0,0,1-.13-.66c0-.15-.12,0-.33.07a1.07,1.07,0,0,1-.76.13.65.65,0,0,0,.09-.19c0-.07,0-.11-.06-.11A2,2,0,0,1,49.93,25a1.64,1.64,0,0,1-.14-1.82l-.39,0a4.24,4.24,0,0,1,0-.93,3.44,3.44,0,0,0-2,.85A6.09,6.09,0,0,0,45.91,25.31Z"/></g></g></svg>